<?xml version="1.0" encoding="UTF-8" standalone="no"?>
<!DOCTYPE svg PUBLIC "-//W3C//DTD SVG 1.1//EN"
 "http://www.w3.org/Graphics/SVG/1.1/DTD/svg11.dtd">
<!-- Generated by graphviz version 2.43.0 (0)
 -->
<!-- Title: bladerfRadarBurst_cc_impl.h Pages: 1 -->
<svg width="373pt" height="229pt"
 viewBox="0.00 0.00 372.50 229.00" xmlns="http://www.w3.org/2000/svg" xmlns:xlink="http://www.w3.org/1999/xlink">
<g id="graph0" class="graph" transform="scale(1 1) rotate(0) translate(4 225)">
<title>bladerfRadarBurst_cc_impl.h</title>
<polygon fill="white" stroke="transparent" points="-4,4 -4,-225 368.5,-225 368.5,4 -4,4"/>
<!-- Node1 -->
<g id="node1" class="node">
<title>Node1</title>
<g id="a_node1"><a xlink:title=" ">
<polygon fill="#bfbfbf" stroke="black" points="235,-190.5 235,-220.5 346,-220.5 346,-190.5 235,-190.5"/>
<text text-anchor="start" x="243" y="-208.5" font-family="Helvetica,sans-Serif" font-size="10.00">bladerfRadarBurst_cc</text>
<text text-anchor="middle" x="290.5" y="-197.5" font-family="Helvetica,sans-Serif" font-size="10.00">_impl.h</text>
</a>
</g>
</g>
<!-- Node2 -->
<g id="node2" class="node">
<title>Node2</title>
<g id="a_node2"><a xlink:href="bladerfRadarBurst__cc_8h.html" target="_top" xlink:title=" ">
<polygon fill="white" stroke="black" points="134.5,-123.5 134.5,-153.5 256.5,-153.5 256.5,-123.5 134.5,-123.5"/>
<text text-anchor="start" x="142.5" y="-141.5" font-family="Helvetica,sans-Serif" font-size="10.00">gnuradio/sfcwRadar</text>
<text text-anchor="middle" x="195.5" y="-130.5" font-family="Helvetica,sans-Serif" font-size="10.00">/bladerfRadarBurst_cc.h</text>
</a>
</g>
</g>
<!-- Node1&#45;&gt;Node2 -->
<g id="edge1" class="edge">
<title>Node1&#45;&gt;Node2</title>
<path fill="none" stroke="midnightblue" d="M269.89,-190.4C256.57,-181.28 239.04,-169.29 224.34,-159.24"/>
<polygon fill="midnightblue" stroke="midnightblue" points="226.3,-156.33 216.07,-153.58 222.35,-162.11 226.3,-156.33"/>
</g>
<!-- Node6 -->
<g id="node6" class="node">
<title>Node6</title>
<g id="a_node6"><a xlink:title=" ">
<polygon fill="white" stroke="#bfbfbf" points="262.5,-62 262.5,-81 332.5,-81 332.5,-62 262.5,-62"/>
<text text-anchor="middle" x="297.5" y="-69" font-family="Helvetica,sans-Serif" font-size="10.00">libbladeRF.h</text>
</a>
</g>
</g>
<!-- Node1&#45;&gt;Node6 -->
<g id="edge6" class="edge">
<title>Node1&#45;&gt;Node6</title>
<path fill="none" stroke="midnightblue" d="M291.25,-190.37C292.51,-166.5 295.08,-118.18 296.5,-91.41"/>
<polygon fill="midnightblue" stroke="midnightblue" points="300.01,-91.27 297.04,-81.1 293.02,-90.9 300.01,-91.27"/>
</g>
<!-- Node7 -->
<g id="node7" class="node">
<title>Node7</title>
<g id="a_node7"><a xlink:title=" ">
<polygon fill="white" stroke="#bfbfbf" points="318.5,-129 318.5,-148 364.5,-148 364.5,-129 318.5,-129"/>
<text text-anchor="middle" x="341.5" y="-136" font-family="Helvetica,sans-Serif" font-size="10.00">chrono</text>
</a>
</g>
</g>
<!-- Node1&#45;&gt;Node7 -->
<g id="edge7" class="edge">
<title>Node1&#45;&gt;Node7</title>
<path fill="none" stroke="midnightblue" d="M301.57,-190.4C309.44,-180.36 320.05,-166.84 328.35,-156.25"/>
<polygon fill="midnightblue" stroke="midnightblue" points="331.26,-158.22 334.68,-148.19 325.75,-153.9 331.26,-158.22"/>
</g>
<!-- Node3 -->
<g id="node3" class="node">
<title>Node3</title>
<g id="a_node3"><a xlink:href="api_8h.html" target="_top" xlink:title=" ">
<polygon fill="white" stroke="black" points="0.5,-56.5 0.5,-86.5 104.5,-86.5 104.5,-56.5 0.5,-56.5"/>
<text text-anchor="start" x="8.5" y="-74.5" font-family="Helvetica,sans-Serif" font-size="10.00">gnuradio/sfcwRadar</text>
<text text-anchor="middle" x="52.5" y="-63.5" font-family="Helvetica,sans-Serif" font-size="10.00">/api.h</text>
</a>
</g>
</g>
<!-- Node2&#45;&gt;Node3 -->
<g id="edge2" class="edge">
<title>Node2&#45;&gt;Node3</title>
<path fill="none" stroke="midnightblue" d="M164.47,-123.4C143.48,-113.86 115.56,-101.16 92.85,-90.84"/>
<polygon fill="midnightblue" stroke="midnightblue" points="94.02,-87.53 83.47,-86.58 91.12,-93.9 94.02,-87.53"/>
</g>
<!-- Node5 -->
<g id="node5" class="node">
<title>Node5</title>
<g id="a_node5"><a xlink:title=" ">
<polygon fill="white" stroke="#bfbfbf" points="123,-56.5 123,-86.5 244,-86.5 244,-56.5 123,-56.5"/>
<text text-anchor="start" x="131" y="-74.5" font-family="Helvetica,sans-Serif" font-size="10.00">gnuradio/tagged_stream</text>
<text text-anchor="middle" x="183.5" y="-63.5" font-family="Helvetica,sans-Serif" font-size="10.00">_block.h</text>
</a>
</g>
</g>
<!-- Node2&#45;&gt;Node5 -->
<g id="edge4" class="edge">
<title>Node2&#45;&gt;Node5</title>
<path fill="none" stroke="midnightblue" d="M192.9,-123.4C191.45,-115.56 189.61,-105.6 187.94,-96.57"/>
<polygon fill="midnightblue" stroke="midnightblue" points="191.36,-95.77 186.1,-86.58 184.47,-97.05 191.36,-95.77"/>
</g>
<!-- Node2&#45;&gt;Node6 -->
<g id="edge5" class="edge">
<title>Node2&#45;&gt;Node6</title>
<path fill="none" stroke="midnightblue" d="M217.63,-123.4C234.74,-112.5 258.3,-97.48 275.4,-86.58"/>
<polygon fill="midnightblue" stroke="midnightblue" points="277.6,-89.33 284.15,-81.01 273.84,-83.43 277.6,-89.33"/>
</g>
<!-- Node4 -->
<g id="node4" class="node">
<title>Node4</title>
<g id="a_node4"><a xlink:title=" ">
<polygon fill="white" stroke="#bfbfbf" points="0,-0.5 0,-19.5 105,-19.5 105,-0.5 0,-0.5"/>
<text text-anchor="middle" x="52.5" y="-7.5" font-family="Helvetica,sans-Serif" font-size="10.00">gnuradio/attributes.h</text>
</a>
</g>
</g>
<!-- Node3&#45;&gt;Node4 -->
<g id="edge3" class="edge">
<title>Node3&#45;&gt;Node4</title>
<path fill="none" stroke="midnightblue" d="M52.5,-56.4C52.5,-48.47 52.5,-38.46 52.5,-29.86"/>
<polygon fill="midnightblue" stroke="midnightblue" points="56,-29.66 52.5,-19.66 49,-29.66 56,-29.66"/>
</g>
</g>
</svg>
