<?xml version="1.0" encoding="UTF-8" standalone="no"?>
<!DOCTYPE svg PUBLIC "-//W3C//DTD SVG 1.1//EN"
 "http://www.w3.org/Graphics/SVG/1.1/DTD/svg11.dtd">
<!-- Generated by graphviz version 2.43.0 (0)
 -->
<!-- Title: bladerfEchoTimer_cc_impl.h Pages: 1 -->
<svg width="366pt" height="229pt"
 viewBox="0.00 0.00 365.50 229.00" xmlns="http://www.w3.org/2000/svg" xmlns:xlink="http://www.w3.org/1999/xlink">
<g id="graph0" class="graph" transform="scale(1 1) rotate(0) translate(4 225)">
<title>bladerfEchoTimer_cc_impl.h</title>
<polygon fill="white" stroke="transparent" points="-4,4 -4,-225 361.5,-225 361.5,4 -4,4"/>
<!-- Node1 -->
<g id="node1" class="node">
<title>Node1</title>
<g id="a_node1"><a xlink:title=" ">
<polygon fill="#bfbfbf" stroke="black" points="229,-190.5 229,-220.5 338,-220.5 338,-190.5 229,-190.5"/>
<text text-anchor="start" x="237" y="-208.5" font-family="Helvetica,sans-Serif" font-size="10.00">bladerfEchoTimer_cc</text>
<text text-anchor="middle" x="283.5" y="-197.5" font-family="Helvetica,sans-Serif" font-size="10.00">_impl.h</text>
</a>
</g>
</g>
<!-- Node2 -->
<g id="node2" class="node">
<title>Node2</title>
<g id="a_node2"><a xlink:href="bladerfEchoTimer__cc_8h.html" target="_top" xlink:title=" ">
<polygon fill="white" stroke="black" points="124.5,-123.5 124.5,-153.5 244.5,-153.5 244.5,-123.5 124.5,-123.5"/>
<text text-anchor="start" x="132.5" y="-141.5" font-family="Helvetica,sans-Serif" font-size="10.00">gnuradio/sfcwRadar</text>
<text text-anchor="middle" x="184.5" y="-130.5" font-family="Helvetica,sans-Serif" font-size="10.00">/bladerfEchoTimer_cc.h</text>
</a>
</g>
</g>
<!-- Node1&#45;&gt;Node2 -->
<g id="edge1" class="edge">
<title>Node1&#45;&gt;Node2</title>
<path fill="none" stroke="midnightblue" d="M262.02,-190.4C248.14,-181.28 229.87,-169.29 214.56,-159.24"/>
<polygon fill="midnightblue" stroke="midnightblue" points="216.22,-156.14 205.94,-153.58 212.38,-161.99 216.22,-156.14"/>
</g>
<!-- Node6 -->
<g id="node6" class="node">
<title>Node6</title>
<g id="a_node6"><a xlink:title=" ">
<polygon fill="white" stroke="#bfbfbf" points="254.5,-62 254.5,-81 324.5,-81 324.5,-62 254.5,-62"/>
<text text-anchor="middle" x="289.5" y="-69" font-family="Helvetica,sans-Serif" font-size="10.00">libbladeRF.h</text>
</a>
</g>
</g>
<!-- Node1&#45;&gt;Node6 -->
<g id="edge6" class="edge">
<title>Node1&#45;&gt;Node6</title>
<path fill="none" stroke="midnightblue" d="M284.14,-190.37C285.23,-166.5 287.42,-118.18 288.64,-91.41"/>
<polygon fill="midnightblue" stroke="midnightblue" points="292.15,-91.25 289.11,-81.1 285.16,-90.93 292.15,-91.25"/>
</g>
<!-- Node7 -->
<g id="node7" class="node">
<title>Node7</title>
<g id="a_node7"><a xlink:title=" ">
<polygon fill="white" stroke="#bfbfbf" points="311.5,-129 311.5,-148 357.5,-148 357.5,-129 311.5,-129"/>
<text text-anchor="middle" x="334.5" y="-136" font-family="Helvetica,sans-Serif" font-size="10.00">chrono</text>
</a>
</g>
</g>
<!-- Node1&#45;&gt;Node7 -->
<g id="edge7" class="edge">
<title>Node1&#45;&gt;Node7</title>
<path fill="none" stroke="midnightblue" d="M294.57,-190.4C302.44,-180.36 313.05,-166.84 321.35,-156.25"/>
<polygon fill="midnightblue" stroke="midnightblue" points="324.26,-158.22 327.68,-148.19 318.75,-153.9 324.26,-158.22"/>
</g>
<!-- Node3 -->
<g id="node3" class="node">
<title>Node3</title>
<g id="a_node3"><a xlink:href="api_8h.html" target="_top" xlink:title=" ">
<polygon fill="white" stroke="black" points="0.5,-56.5 0.5,-86.5 104.5,-86.5 104.5,-56.5 0.5,-56.5"/>
<text text-anchor="start" x="8.5" y="-74.5" font-family="Helvetica,sans-Serif" font-size="10.00">gnuradio/sfcwRadar</text>
<text text-anchor="middle" x="52.5" y="-63.5" font-family="Helvetica,sans-Serif" font-size="10.00">/api.h</text>
</a>
</g>
</g>
<!-- Node2&#45;&gt;Node3 -->
<g id="edge2" class="edge">
<title>Node2&#45;&gt;Node3</title>
<path fill="none" stroke="midnightblue" d="M155.86,-123.4C136.66,-113.94 111.17,-101.39 90.31,-91.12"/>
<polygon fill="midnightblue" stroke="midnightblue" points="91.6,-87.85 81.09,-86.58 88.51,-94.13 91.6,-87.85"/>
</g>
<!-- Node5 -->
<g id="node5" class="node">
<title>Node5</title>
<g id="a_node5"><a xlink:title=" ">
<polygon fill="white" stroke="#bfbfbf" points="122.5,-62 122.5,-81 236.5,-81 236.5,-62 122.5,-62"/>
<text text-anchor="middle" x="179.5" y="-69" font-family="Helvetica,sans-Serif" font-size="10.00">gnuradio/sync_block.h</text>
</a>
</g>
</g>
<!-- Node2&#45;&gt;Node5 -->
<g id="edge4" class="edge">
<title>Node2&#45;&gt;Node5</title>
<path fill="none" stroke="midnightblue" d="M183.42,-123.4C182.69,-113.96 181.73,-101.45 180.94,-91.19"/>
<polygon fill="midnightblue" stroke="midnightblue" points="184.43,-90.9 180.17,-81.19 177.45,-91.43 184.43,-90.9"/>
</g>
<!-- Node2&#45;&gt;Node6 -->
<g id="edge5" class="edge">
<title>Node2&#45;&gt;Node6</title>
<path fill="none" stroke="midnightblue" d="M207.28,-123.4C225.05,-112.39 249.6,-97.2 267.24,-86.28"/>
<polygon fill="midnightblue" stroke="midnightblue" points="269.1,-89.25 275.76,-81.01 265.41,-83.29 269.1,-89.25"/>
</g>
<!-- Node4 -->
<g id="node4" class="node">
<title>Node4</title>
<g id="a_node4"><a xlink:title=" ">
<polygon fill="white" stroke="#bfbfbf" points="0,-0.5 0,-19.5 105,-19.5 105,-0.5 0,-0.5"/>
<text text-anchor="middle" x="52.5" y="-7.5" font-family="Helvetica,sans-Serif" font-size="10.00">gnuradio/attributes.h</text>
</a>
</g>
</g>
<!-- Node3&#45;&gt;Node4 -->
<g id="edge3" class="edge">
<title>Node3&#45;&gt;Node4</title>
<path fill="none" stroke="midnightblue" d="M52.5,-56.4C52.5,-48.47 52.5,-38.46 52.5,-29.86"/>
<polygon fill="midnightblue" stroke="midnightblue" points="56,-29.66 52.5,-19.66 49,-29.66 56,-29.66"/>
</g>
</g>
</svg>
