<?xml version="1.0" encoding="UTF-8" standalone="no"?>
<!DOCTYPE svg PUBLIC "-//W3C//DTD SVG 1.1//EN"
 "http://www.w3.org/Graphics/SVG/1.1/DTD/svg11.dtd">
<!-- Generated by graphviz version 2.43.0 (0)
 -->
<!-- Title: pydoc_macros.h Pages: 1 -->
<svg width="272pt" height="95pt"
 viewBox="0.00 0.00 272.00 95.00" xmlns="http://www.w3.org/2000/svg" xmlns:xlink="http://www.w3.org/1999/xlink">
<g id="graph0" class="graph" transform="scale(1 1) rotate(0) translate(4 91)">
<title>pydoc_macros.h</title>
<polygon fill="white" stroke="transparent" points="-4,4 -4,-91 268,-91 268,4 -4,4"/>
<!-- Node1 -->
<g id="node1" class="node">
<title>Node1</title>
<g id="a_node1"><a xlink:title=" ">
<polygon fill="#bfbfbf" stroke="black" points="83,-67.5 83,-86.5 172,-86.5 172,-67.5 83,-67.5"/>
<text text-anchor="middle" x="127.5" y="-74.5" font-family="Helvetica,sans-Serif" font-size="10.00">pydoc_macros.h</text>
</a>
</g>
</g>
<!-- Node2 -->
<g id="node2" class="node">
<title>Node2</title>
<g id="a_node2"><a xlink:href="bladerfRadarController__cc__pydoc__template_8h.html" target="_top" xlink:title=" ">
<polygon fill="white" stroke="black" points="0,-0.5 0,-30.5 115,-30.5 115,-0.5 0,-0.5"/>
<text text-anchor="start" x="8" y="-18.5" font-family="Helvetica,sans-Serif" font-size="10.00">bladerfRadarController</text>
<text text-anchor="middle" x="57.5" y="-7.5" font-family="Helvetica,sans-Serif" font-size="10.00">_cc_pydoc_template.h</text>
</a>
</g>
</g>
<!-- Node1&#45;&gt;Node2 -->
<g id="edge1" class="edge">
<title>Node1&#45;&gt;Node2</title>
<path fill="none" stroke="midnightblue" d="M109.76,-60.92C98.77,-51.58 84.75,-39.66 74,-30.52"/>
<polygon fill="midnightblue" stroke="midnightblue" points="107.58,-63.67 117.47,-67.48 112.12,-58.33 107.58,-63.67"/>
</g>
<!-- Node3 -->
<g id="node3" class="node">
<title>Node3</title>
<g id="a_node3"><a xlink:href="bladerfRadarMIMO__pydoc__template_8h.html" target="_top" xlink:title=" ">
<polygon fill="white" stroke="black" points="133,-0.5 133,-30.5 264,-30.5 264,-0.5 133,-0.5"/>
<text text-anchor="start" x="141" y="-18.5" font-family="Helvetica,sans-Serif" font-size="10.00">bladerfRadarMIMO_pydoc</text>
<text text-anchor="middle" x="198.5" y="-7.5" font-family="Helvetica,sans-Serif" font-size="10.00">_template.h</text>
</a>
</g>
</g>
<!-- Node1&#45;&gt;Node3 -->
<g id="edge2" class="edge">
<title>Node1&#45;&gt;Node3</title>
<path fill="none" stroke="midnightblue" d="M145.49,-60.92C156.64,-51.58 170.86,-39.66 181.77,-30.52"/>
<polygon fill="midnightblue" stroke="midnightblue" points="143.09,-58.37 137.67,-67.48 147.59,-63.73 143.09,-58.37"/>
</g>
</g>
</svg>
