<?xml version="1.0" encoding="UTF-8" standalone="no"?>
<!DOCTYPE svg PUBLIC "-//W3C//DTD SVG 1.1//EN"
 "http://www.w3.org/Graphics/SVG/1.1/DTD/svg11.dtd">
<!-- Generated by graphviz version 2.43.0 (0)
 -->
<!-- Title: Graphical Class Hierarchy Pages: 1 -->
<svg width="324pt" height="39pt"
 viewBox="0.00 0.00 324.00 39.00" xmlns="http://www.w3.org/2000/svg" xmlns:xlink="http://www.w3.org/1999/xlink">
<g id="graph0" class="graph" transform="scale(1 1) rotate(0) translate(4 35)">
<title>Graphical Class Hierarchy</title>
<polygon fill="white" stroke="transparent" points="-4,4 -4,-35 320,-35 320,4 -4,4"/>
<!-- Node1 -->
<g id="node1" class="node">
<title>Node1</title>
<g id="a_node1"><a xlink:href="classgr_1_1sfcwRadar_1_1bladerfRadarBurst__cc__impl.html" target="_top" xlink:title=" ">
<polygon fill="white" stroke="black" points="0,-0.5 0,-30.5 140,-30.5 140,-0.5 0,-0.5"/>
<text text-anchor="start" x="8" y="-18.5" font-family="Helvetica,sans-Serif" font-size="10.00">gr::sfcwRadar::bladerfRadar</text>
<text text-anchor="middle" x="70" y="-7.5" font-family="Helvetica,sans-Serif" font-size="10.00">Burst_cc_impl</text>
</a>
</g>
</g>
<!-- Node0 -->
<g id="node2" class="node">
<title>Node0</title>
<g id="a_node2"><a xlink:href="classgr_1_1sfcwRadar_1_1bladerfRadarBurst__cc.html" target="_top" xlink:title="&lt;+description of block+&gt;">
<polygon fill="white" stroke="black" points="176,-0.5 176,-30.5 316,-30.5 316,-0.5 176,-0.5"/>
<text text-anchor="start" x="184" y="-18.5" font-family="Helvetica,sans-Serif" font-size="10.00">gr::sfcwRadar::bladerfRadar</text>
<text text-anchor="middle" x="246" y="-7.5" font-family="Helvetica,sans-Serif" font-size="10.00">Burst_cc</text>
</a>
</g>
</g>
<!-- Node1&#45;&gt;Node0 -->
<g id="edge1" class="edge">
<title>Node1&#45;&gt;Node0</title>
<path fill="none" stroke="midnightblue" d="M150.03,-8.78C158.62,-8.72 167.32,-8.75 175.78,-8.88"/>
<polygon fill="midnightblue" stroke="midnightblue" points="149.98,-5.28 140.02,-8.88 150.06,-12.28 149.98,-5.28"/>
</g>
<!-- Node0&#45;&gt;Node1 -->
<g id="edge2" class="edge">
<title>Node0&#45;&gt;Node1</title>
<path fill="none" stroke="midnightblue" d="M165.76,-22.23C157.17,-22.28 148.48,-22.24 140.02,-22.12"/>
<polygon fill="midnightblue" stroke="midnightblue" points="165.82,-25.73 175.78,-22.12 165.74,-18.73 165.82,-25.73"/>
</g>
</g>
</svg>
